<?xml version="1.0" encoding="UTF-8" standalone="no"?>
<!-- Created with Inkscape (http://www.inkscape.org/) -->

<svg
   xmlns:dc="http://purl.org/dc/elements/1.1/"
   xmlns:cc="http://creativecommons.org/ns#"
   xmlns:rdf="http://www.w3.org/1999/02/22-rdf-syntax-ns#"
   xmlns:svg="http://www.w3.org/2000/svg"
   xmlns="http://www.w3.org/2000/svg"
   xmlns:sodipodi="http://sodipodi.sourceforge.net/DTD/sodipodi-0.dtd"
   xmlns:inkscape="http://www.inkscape.org/namespaces/inkscape"
   id="svg3119"
   version="1.1"
   inkscape:version="0.48.5 r10040"
   width="240"
   height="240"
   sodipodi:docname="Logo-edited.svg">
  <metadata
     id="metadata3125">
    <rdf:RDF>
      <cc:Work
         rdf:about="">
        <dc:format>image/svg+xml</dc:format>
        <dc:type
           rdf:resource="http://purl.org/dc/dcmitype/StillImage" />
        <dc:title />
      </cc:Work>
    </rdf:RDF>
  </metadata>
  <defs
     id="defs3123" />
  <sodipodi:namedview
     pagecolor="#c2ffca"
     bordercolor="#666666"
     borderopacity="1"
     objecttolerance="10"
     gridtolerance="10"
     guidetolerance="10"
     inkscape:pageopacity="0"
     inkscape:pageshadow="2"
     inkscape:window-width="1440"
     inkscape:window-height="852"
     id="namedview3121"
     showgrid="false"
     inkscape:zoom="1.9666667"
     inkscape:cx="151.8167"
     inkscape:cy="110.62523"
     inkscape:window-x="0"
     inkscape:window-y="0"
     inkscape:window-maximized="1"
     inkscape:current-layer="layer1" />
  <g
     inkscape:groupmode="layer"
     id="layer1"
     inkscape:label="Background"
     style="display:inline">
    <rect
       style="fill:#ffffff;fill-opacity:1;fill-rule:evenodd;stroke:none"
       id="rect3049"
       width="239.99692"
       height="240.00865"
       x="0"
       y="-0.0086492728" />
  </g>
  <g
     inkscape:groupmode="layer"
     id="layer2"
     inkscape:label="Foreground"
     style="display:inline">
    <path
       style="fill:#000000"
       d="m 101.33927,226.67448 c 1.94627,-6.65936 5.72899,-23.54075 5.72899,-26.28016 0,0 -2.47394,-0.29702 -4.95386,-0.66891 -5.571053,-0.83543 -16.533726,-4.5141 -22.510236,-7.5536 C 50.969472,177.60892 33.651357,149.24773 33.630346,116.88232 33.618946,99.328773 37.134626,86.408961 45.8356,71.690608 51.903474,61.426341 63.205217,51.006412 70.902662,45.746883 73.651917,43.868366 75.790039,42.605831 75.790039,42.605831 72.214422,34.966254 62.996908,28.455776 62.996908,28.455776 L 50.407036,41.3397 49.62334,5.3451206 86.40924,3.6500466 76.38136,15.225375 l 5.211473,4.865694 c 4.169411,3.892772 6.906456,7.881487 11.675323,15.173777 0,0 2.71785,-0.720234 7.024644,-1.70061 10.4779,-2.38513 27.19551,-2.231661 37.41072,0.343434 l 7.58019,1.910847 c 0,0 4.22659,-7.242093 7.78591,-11.754805 2.533,-3.841948 8.88147,-8.994466 8.88147,-8.994466 l -10.32775,-10.9420914 37,1.217966 L 187.3133,40.304897 174.9717,29.17448 c 0,0 -3.82338,2.397704 -7.25344,6.096785 -3.24152,3.495762 -5.53865,8.229383 -5.53865,8.229383 l 2.88383,2.086916 c 17.52932,12.685248 29.1676,28.748475 34.60781,47.765914 2.7216,9.513932 3.63156,26.308702 1.98033,36.549842 -5.54128,34.36757 -31.74257,62.08705 -65.52824,69.32518 -3.3,0.70698 -6.2574,0.99546 -6.41662,1.10718 -0.58041,0.40721 2.06368,14.58647 4.45907,24.12887 1.35165,5.38453 2.45727,9.88453 2.45694,10 -3.4e-4,0.11546 -8.46532,-0.42566 -18.81108,-0.42566 -9.53389,0 -18.810462,0.63559 -18.810462,0.63559 z m 34.07623,-29.06736 c 21.23942,-4.31895 41.00572,-18.07974 52.51049,-36.55646 8.94191,-14.36075 12.86161,-28.06508 12.84713,-44.91698 -0.015,-17.403617 -4.03573,-30.714522 -13.75753,-45.544745 C 161.62735,31.860162 108.80849,22.319682 70.263794,48.764056 63.716248,53.256133 53.172371,63.773263 48.669165,70.487032 38.245147,86.028058 33.151718,107.75335 35.593064,126.26126 c 4.654672,35.28719 28.783403,62.50283 62.837667,70.87679 9.757649,2.39942 26.450709,2.61113 36.984769,0.46907 z m -31.03808,-2.4028 C 74.743095,189.81638 50.743821,168.58381 41.611794,139.67448 38.483938,129.7726 37.726591,110.30281 40.061107,99.809613 46.810842,69.470837 68.51697,46.929678 98.62334,38.994493 c 10.68341,-2.815844 27.74684,-2.782813 38.5,0.07453 28.67138,7.61859 49.68586,27.934883 57.73207,55.813975 3.04682,10.556852 3.22293,32.438362 0.34038,42.291482 -6.64972,22.73002 -20.94461,40.1919 -40.94857,50.02059 -5.56813,2.73583 -12.82388,5.68827 -16.12388,6.56098 -6.98172,1.84636 -26.86333,2.69962 -33.74592,1.44827 z m 24.03169,-23.41906 c 1.75747,-0.90882 3.92126,-2.7602 4.80842,-4.11419 0.88716,-1.35398 4.30311,-11.80711 7.591,-23.22919 6.45244,-22.41565 6.82808,-26.24018 3.3053,-33.65227 -2.06833,-4.35188 -8.57768,-9.02285 -14.97511,-10.74583 -2.20846,-0.594787 -8.32741,-0.908327 -13.59767,-0.696757 -11.22426,0.4506 -17.250358,2.922067 -22.281578,9.138307 -2.62569,3.24412 -3.126524,4.78389 -3.413846,10.49552 -0.292356,5.81169 0.449828,9.37155 5.632933,27.01813 3.283311,11.17848 6.796561,21.25453 7.807221,22.39123 1.01066,1.1367 3.63756,2.92186 5.83756,3.96702 4.80415,2.28232 14.31144,2.00036 19.28577,-0.57197 z M 86.87334,164.1219 c 2.0625,-0.57279 3.75,-1.49399 3.75,-2.04713 0,-0.55313 -2.25,-8.69663 -5,-18.09665 -6.216693,-21.24985 -6.559235,-27.44704 -2.012667,-36.41272 1.643032,-3.24001 2.993032,-6.06389 3,-6.27529 0.007,-0.2114 -3.107261,-0.16114 -6.920506,0.1117 -17.346725,1.24115 -24.031307,10.15974 -19.985958,26.66531 3.70174,15.1036 8.832602,30.38635 10.962867,32.65391 3.463741,3.68699 10.135,5.08694 16.206264,3.40087 z m 71.99835,4.5e-4 c 7.04298,-1.95593 8.20581,-3.91695 13.81573,-23.29899 7.32049,-25.292 6.40811,-31.61833 -5.28548,-36.64878 -4.78248,-2.05736 -17.7786,-4.05247 -17.7786,-2.7293 0,0.29955 1.2375,2.92985 2.75,5.84513 4.36631,8.41588 3.87028,17.17766 -2.1106,37.28101 -2.6012,8.74332 -4.59433,16.59859 -4.42917,17.45616 0.53026,2.75346 6.95148,3.78512 13.03812,2.09477 z M 88.259038,93.658598 c 3.528161,-2.28047 6.808946,-10.25744 6.820628,-16.583811 0.0084,-4.563788 -0.493265,-6.259955 -2.711953,-9.168805 -3.8619,-5.063211 -8.58404,-6.446353 -14.410929,-4.221044 -5.834425,2.228187 -8.324699,6.195922 -8.329706,13.271661 -0.0057,8.114389 4.083413,15.988209 9.496262,18.285389 2.360773,1.0019 6.152754,0.34468 9.135698,-1.58339 z m 69.969072,0.61516 c 5.4217,-3.30607 7.89523,-8.55875 7.89523,-16.765971 0,-6.254556 -0.31819,-7.511884 -2.5,-9.878878 -9.18427,-9.963778 -23.02757,-3.725219 -22.99023,10.360671 0.0143,5.409328 4.24302,13.758908 8.18566,16.162678 4.09415,2.49615 5.48565,2.51411 9.40934,0.1215 z m -31.05955,-6.46638 c 3.35078,-3.84276 6.45478,-12.382719 6.45478,-17.7589 0,-9.187694 -8.85157,-17.579853 -17.41343,-16.50964 -11.21566,1.401932 -16.581867,13.662404 -11.68051,26.68712 2.17164,5.77085 7.1393,11.47007 10.59394,12.15405 4.057,0.80324 8.99079,-1.06973 12.04522,-4.57263 z"
       id="path3131"
       inkscape:connector-curvature="0"
       sodipodi:nodetypes="sssssssscccccsssscccccccscsssscscscsssssssssssssssssssssssssssssssssssscsssssssssscssssssssssssssssssss" />
  </g>
</svg>
